<svg width="32" height="32" viewBox="0 0 32 32" fill="none" xmlns="http://www.w3.org/2000/svg">
<path d="M17.668 9.7526C17.9809 9.47483 18.2481 9.33594 18.5563 9.33594C19.1381 9.33594 19.5743 9.83101 20.4468 10.8212L22.5924 13.2563C23.7526 14.5732 24.3328 15.2315 24.3328 16.0026C24.3328 16.7737 23.7526 17.432 22.5924 18.7489L20.4468 21.184C19.5743 22.1742 19.1381 22.6693 18.5563 22.6693C18.2481 22.6693 17.9809 22.5304 17.668 22.2526" stroke="#111111" stroke-width="1.25" stroke-linecap="round"/>
<path d="M11.5903 10.8212C12.4713 9.83101 12.9118 9.33594 13.4993 9.33594C14.0869 9.33594 14.5273 9.83101 15.4084 10.8212L17.5752 13.2563C18.7468 14.5732 19.3327 15.2315 19.3327 16.0026C19.3327 16.7737 18.7468 17.432 17.5752 18.7489L15.4084 21.184C14.5273 22.1742 14.0869 22.6693 13.4993 22.6693C12.9118 22.6693 12.4713 22.1742 11.5903 21.184L9.42353 18.7489C8.25186 17.432 7.66602 16.7737 7.66602 16.0026C7.66602 15.2315 8.25186 14.5732 9.42353 13.2563L11.5903 10.8212Z" stroke="#111111" stroke-width="1.25"/>
</svg>
