<svg width="32" height="32" viewBox="0 0 32 32" fill="none" xmlns="http://www.w3.org/2000/svg">
<path d="M18.4386 9.67325L12.8946 12.3345C12.4679 12.5393 12.012 12.5906 11.5473 12.4865C11.2431 12.4184 11.091 12.3843 10.9686 12.3703C9.44786 12.1967 8.5 13.4002 8.5 14.7843V15.5438C8.5 16.9279 9.44786 18.1315 10.9686 17.9578C11.091 17.9438 11.2432 17.9097 11.5473 17.8416C12.012 17.7375 12.4679 17.7888 12.8946 17.9936L18.4386 20.6549C19.7112 21.2658 20.3475 21.5712 21.057 21.3331C21.7664 21.0951 22.0099 20.5841 22.497 19.5624C23.8343 16.7567 23.8343 13.5714 22.497 10.7657C22.0099 9.74395 21.7664 9.23307 21.057 8.99498C20.3475 8.7569 19.7112 9.06235 18.4386 9.67325Z" stroke="#111111" stroke-width="1.25" stroke-linecap="round" stroke-linejoin="round"/>
<path d="M16.834 20.1693V20.5859C16.834 21.656 16.834 22.191 16.6473 22.4931C16.3984 22.8959 15.9433 23.1234 15.4717 23.0809C15.1181 23.049 14.6901 22.7279 13.834 22.0859L12.834 21.3359C12.0194 20.725 11.834 20.3541 11.834 19.3359V18.0859" stroke="#111111" stroke-width="1.25" stroke-linecap="round" stroke-linejoin="round"/>
<path d="M12.25 17.6641V12.6641" stroke="#111111" stroke-width="1.25" stroke-linecap="round" stroke-linejoin="round"/>
<path d="M22 15C24.7614 15 27 12.7614 27 10C27 7.23857 24.7614 5 22 5C19.2386 5 17 7.23857 17 10C17 12.7614 19.2386 15 22 15Z" fill="white" stroke="#111111" stroke-width="1.25" stroke-linecap="round"/>
<path d="M23.1077 8.88346C22.9726 8.31338 22.2848 7.79896 21.4593 8.1838C20.6337 8.56864 20.5026 9.80686 21.7513 9.9384C22.3158 9.99786 22.6837 9.86941 23.0206 10.2327C23.3575 10.5961 23.4201 11.6064 22.5589 11.8787C21.6976 12.1511 20.8448 11.7256 20.752 11.1214M21.9921 7.50781V8.05096M21.9921 11.9626V12.5078" stroke="#111111" stroke-linecap="round" stroke-linejoin="round"/>
</svg>
