<svg width="22" height="22" viewBox="0 0 22 22" fill="none" xmlns="http://www.w3.org/2000/svg">
<path d="M14.666 9.16406L16.6363 9.75513C17.8951 10.1328 18.5244 10.3216 18.8869 10.8087C19.2493 11.2959 19.2493 11.953 19.2493 13.2672V20.1641" stroke="#2E2E2E" stroke-width="1.375" stroke-linejoin="round"/>
<path d="M7.33398 8.25H10.084M7.33398 11.9167H10.084" stroke="#2E2E2E" stroke-width="1.375" stroke-linecap="round" stroke-linejoin="round"/>
<path d="M10.9993 20.1693V17.4193C10.9993 16.555 10.9993 16.1229 10.7309 15.8544C10.4624 15.5859 10.0302 15.5859 9.16602 15.5859H8.24935C7.38511 15.5859 6.95299 15.5859 6.6845 15.8544C6.41602 16.1229 6.41602 16.555 6.41602 17.4193V20.1693" stroke="#2E2E2E" stroke-width="1.375" stroke-linejoin="round"/>
<path d="M1.83398 20.1641H20.1673" stroke="#2E2E2E" stroke-width="1.375" stroke-linecap="round"/>
<path d="M2.75 20.1693V6.16008C2.75 3.85856 2.75 2.70779 3.47525 2.13683C4.20051 1.56586 5.26847 1.87586 7.40439 2.49585L11.9877 3.82623C13.2766 4.20036 13.9211 4.38743 14.2939 4.89729C14.6667 5.40715 14.6667 6.10159 14.6667 7.49046V20.1693" stroke="#2E2E2E" stroke-width="1.375" stroke-linecap="round" stroke-linejoin="round"/>
</svg>
