<svg width="22" height="22" viewBox="0 0 22 22" fill="none" xmlns="http://www.w3.org/2000/svg">
<path d="M9.625 8.02083V6.1875C9.625 4.68074 9.625 3.92736 9.20883 3.42028C9.13267 3.32745 9.04755 3.24233 8.95472 3.16615C8.44764 2.75 7.69426 2.75 6.1875 2.75C4.68074 2.75 3.92736 2.75 3.42028 3.16615C3.32745 3.24233 3.24233 3.32745 3.16615 3.42028C2.75 3.92736 2.75 4.68074 2.75 6.1875V8.02083C2.75 9.52756 2.75 10.281 3.16615 10.7881C3.24233 10.8809 3.32745 10.966 3.42028 11.0422C3.92736 11.4583 4.68074 11.4583 6.1875 11.4583C7.69426 11.4583 8.44764 11.4583 8.95472 11.0422C9.04755 10.966 9.13267 10.8809 9.20883 10.7881C9.625 10.281 9.625 9.52756 9.625 8.02083Z" stroke="#2E2E2E" stroke-width="1.375" stroke-linejoin="round"/>
<path d="M7.10417 14.2109H5.27083C4.6312 14.2109 4.31139 14.2109 4.05114 14.2899C3.46521 14.4676 3.00668 14.9261 2.82894 15.5121C2.75 15.7723 2.75 16.0921 2.75 16.7318C2.75 17.3714 2.75 17.6912 2.82894 17.9515C3.00668 18.5374 3.46521 18.9959 4.05114 19.1737C4.31139 19.2526 4.6312 19.2526 5.27083 19.2526H7.10417C7.7438 19.2526 8.06361 19.2526 8.32386 19.1737C8.90979 18.9959 9.36833 18.5374 9.54608 17.9515C9.625 17.6912 9.625 17.3714 9.625 16.7318C9.625 16.0921 9.625 15.7723 9.54608 15.5121C9.36833 14.9261 8.90979 14.4676 8.32386 14.2899C8.06361 14.2109 7.7438 14.2109 7.10417 14.2109Z" stroke="#2E2E2E" stroke-width="1.375" stroke-linejoin="round"/>
<path d="M19.25 15.8099V13.9766C19.25 12.4698 19.25 11.7164 18.8338 11.2093C18.7577 11.1165 18.6726 11.0314 18.5797 10.9552C18.0726 10.5391 17.3192 10.5391 15.8125 10.5391C14.3058 10.5391 13.5524 10.5391 13.0453 10.9552C12.9524 11.0314 12.8673 11.1165 12.7912 11.2093C12.375 11.7164 12.375 12.4698 12.375 13.9766V15.8099C12.375 17.3166 12.375 18.07 12.7912 18.5771C12.8673 18.67 12.9524 18.7551 13.0453 18.8312C13.5524 19.2474 14.3058 19.2474 15.8125 19.2474C17.3192 19.2474 18.0726 19.2474 18.5797 18.8312C18.6726 18.7551 18.7577 18.67 18.8338 18.5771C19.25 18.07 19.25 17.3166 19.25 15.8099Z" stroke="#2E2E2E" stroke-width="1.375" stroke-linejoin="round"/>
<path d="M16.7292 2.75H14.8958C14.2562 2.75 13.9364 2.75 13.6761 2.82894C13.0902 3.00668 12.6317 3.46521 12.4539 4.05114C12.375 4.31139 12.375 4.6312 12.375 5.27083C12.375 5.91046 12.375 6.23028 12.4539 6.49052C12.6317 7.07646 13.0902 7.53498 13.6761 7.71272C13.9364 7.79167 14.2562 7.79167 14.8958 7.79167H16.7292C17.3688 7.79167 17.6886 7.79167 17.9489 7.71272C18.5348 7.53498 18.9933 7.07646 19.1711 6.49052C19.25 6.23028 19.25 5.91046 19.25 5.27083C19.25 4.6312 19.25 4.31139 19.1711 4.05114C18.9933 3.46521 18.5348 3.00668 17.9489 2.82894C17.6886 2.75 17.3688 2.75 16.7292 2.75Z" stroke="#2E2E2E" stroke-width="1.375" stroke-linejoin="round"/>
</svg>
