<svg width="18" height="20" viewBox="0 0 18 20" fill="none" xmlns="http://www.w3.org/2000/svg">
<path d="M15.5249 3.8252L14.9672 12.8478C14.8246 15.153 14.7534 16.3056 14.1756 17.1343C13.8899 17.544 13.5221 17.8898 13.0955 18.1496C12.2328 18.6752 11.078 18.6752 8.76833 18.6752C6.45571 18.6752 5.29937 18.6752 4.43605 18.1486C4.00922 17.8883 3.6413 17.5419 3.35571 17.1315C2.77809 16.3015 2.70841 15.1473 2.56905 12.8389L2.0249 3.8252" stroke="white" stroke-width="1.35" stroke-linecap="round"/>
<path d="M0.674805 3.8248H16.8748M12.4249 3.8248L11.8106 2.55736C11.4024 1.71544 11.1983 1.29447 10.8463 1.03193C10.7683 0.973695 10.6856 0.921891 10.5991 0.877035C10.2093 0.674805 9.7415 0.674805 8.80586 0.674805C7.84673 0.674805 7.3672 0.674805 6.97092 0.885513C6.88309 0.932214 6.79929 0.986115 6.72037 1.04666C6.36428 1.31983 6.16537 1.7562 5.76755 2.62894L5.22243 3.8248" stroke="white" stroke-width="1.35" stroke-linecap="round"/>
<path d="M6.5249 13.7252V8.3252" stroke="white" stroke-width="1.35" stroke-linecap="round"/>
<path d="M11.0249 13.7252V8.3252" stroke="white" stroke-width="1.35" stroke-linecap="round"/>
</svg>
