<svg width="20" height="20" viewBox="0 0 20 20" fill="none" xmlns="http://www.w3.org/2000/svg">
<path d="M18.3327 9.9974C18.3327 14.5997 14.6017 18.3307 9.99935 18.3307C5.39697 18.3307 1.66602 14.5997 1.66602 9.9974C1.66602 5.39502 5.39697 1.66406 9.99935 1.66406C14.6017 1.66406 18.3327 5.39502 18.3327 9.9974Z" stroke="#99A1AF" stroke-width="1.25"/>
<path d="M12.2578 8.38848C12.1753 7.75293 11.4455 6.72608 10.1333 6.72605C8.60868 6.72603 7.96715 7.57045 7.83697 7.99265C7.63389 8.5574 7.6745 9.71848 9.4616 9.84506C11.6955 10.0034 12.5904 10.2671 12.4766 11.6342C12.3627 13.0013 11.1174 13.2967 10.1333 13.265C9.14918 13.2334 7.53905 12.7813 7.47656 11.5653M9.97718 5.83594V6.72908M9.97718 13.2568V14.1692" stroke="#99A1AF" stroke-width="1.25" stroke-linecap="round"/>
</svg>
