<svg width="22" height="22" viewBox="0 0 22 22" fill="none" xmlns="http://www.w3.org/2000/svg">
<path d="M13.1052 5.94737C13.066 5.02659 12.9492 4.43987 12.6021 3.98843C12.4674 3.81325 12.3104 3.65645 12.1348 3.52204C11.4531 3 10.4636 3 8.48449 3H8.06258C5.67607 3 4.48282 3 3.74142 3.73993C3.00003 4.47987 3.00002 5.6708 3.00001 8.05261L3 13.9474C2.99999 16.3292 2.99998 17.5201 3.74139 18.26C4.48279 19 5.67605 19 8.06258 19H8.48445C10.4636 19 11.4531 19 12.1348 18.478C12.3103 18.3436 12.4674 18.1868 12.6021 18.0116C12.9492 17.5601 13.066 16.9733 13.1052 16.0523" stroke="#2E2E2E" stroke-width="1.2" stroke-linecap="round" stroke-linejoin="round"/>
<path d="M18.1578 10.9981H8.05261M16.0526 13.9455C16.0526 13.9455 19 11.7748 19 10.9981C19 10.2215 16.0526 8.05078 16.0526 8.05078" stroke="#2E2E2E" stroke-width="1.2" stroke-linecap="round" stroke-linejoin="round"/>
</svg>
