<svg width="22" height="22" viewBox="0 0 22 22" fill="none" xmlns="http://www.w3.org/2000/svg">
<path d="M13.6824 4.04605L7.58406 6.97341C7.11472 7.1987 6.61323 7.25515 6.10202 7.14062C5.76746 7.06568 5.60015 7.0282 5.46544 7.01282C3.79264 6.8218 2.75 8.14574 2.75 9.66821V10.5037C2.75 12.0262 3.79264 13.3501 5.46544 13.1591C5.60015 13.1437 5.76747 13.1062 6.10202 13.0313C6.61323 12.9167 7.11472 12.9732 7.58406 13.1985L13.6824 16.1259C15.0823 16.7979 15.7822 17.1338 16.5627 16.8719C17.3431 16.61 17.6109 16.048 18.1467 14.9241C19.6178 11.8379 19.6178 8.33405 18.1467 5.24773C17.6109 4.12381 17.3431 3.56185 16.5627 3.29995C15.7822 3.03805 15.0823 3.37405 13.6824 4.04605Z" stroke="#2E2E2E" stroke-width="1.375" stroke-linecap="round" stroke-linejoin="round"/>
<path d="M11.916 15.5807V16.0391C11.916 17.2162 11.916 17.8047 11.7107 18.1369C11.4369 18.58 10.9363 18.8303 10.4175 18.7835C10.0285 18.7485 9.55771 18.3953 8.61602 17.6891L7.51602 16.8641C6.62 16.1921 6.41602 15.784 6.41602 14.6641V13.2891" stroke="#2E2E2E" stroke-width="1.375" stroke-linecap="round" stroke-linejoin="round"/>
<path d="M6.875 12.8359V7.33594" stroke="#2E2E2E" stroke-width="1.375" stroke-linecap="round" stroke-linejoin="round"/>
</svg>
