<svg width="22" height="22" viewBox="0 0 22 22" fill="none" xmlns="http://www.w3.org/2000/svg">
<path d="M19.1975 15.4298C18.5959 11.8101 16.7229 9.11468 15.0947 7.53148C14.6209 7.07078 14.3841 6.84043 13.8607 6.62725C13.3374 6.41406 12.8876 6.41406 11.988 6.41406H10.012C9.11241 6.41406 8.66259 6.41406 8.13928 6.62725C7.61598 6.84043 7.37908 7.07078 6.90528 7.53148C5.27708 9.11468 3.40414 11.8101 2.8025 15.4298C2.35485 18.123 4.83933 20.1641 7.61596 20.1641H14.3841C17.1606 20.1641 19.6452 18.123 19.1975 15.4298Z" stroke="#2E2E2E" stroke-width="1.375" stroke-linecap="round" stroke-linejoin="round"/>
<path d="M6.65125 4.07524C6.46213 3.79997 6.18802 3.42635 6.75426 3.34115C7.33628 3.25357 7.94062 3.65198 8.53219 3.6438C9.06735 3.63639 9.34 3.39903 9.63251 3.06013C9.94051 2.70326 10.4174 1.83594 10.9993 1.83594C11.5812 1.83594 12.0582 2.70326 12.3662 3.06013C12.6587 3.39903 12.9313 3.63639 13.4665 3.6438C14.0581 3.65198 14.6624 3.25357 15.2444 3.34115C15.8107 3.42635 15.5366 3.79997 15.3475 4.07524L14.4923 5.31986C14.1266 5.85228 13.9437 6.11848 13.5609 6.26888C13.1782 6.41927 12.6835 6.41927 11.6944 6.41927H10.3043C9.31516 6.41927 8.82052 6.41927 8.43778 6.26888C8.05503 6.11848 7.87214 5.85228 7.50635 5.31986L6.65125 4.07524Z" stroke="#2E2E2E" stroke-width="1.375" stroke-linejoin="round"/>
<path d="M12.4903 11.8435C12.2921 11.1119 11.2834 10.4518 10.0726 10.9457C8.86179 11.4395 8.66945 13.0285 10.501 13.1974C11.3287 13.2736 11.8685 13.1088 12.3625 13.5751C12.8567 14.0413 12.9485 15.338 11.6853 15.6875C10.4221 16.0369 9.17135 15.491 9.03516 14.7155M10.8541 10.0781V10.7752M10.8541 15.795V16.4948" stroke="#2E2E2E" stroke-width="1.375" stroke-linecap="round" stroke-linejoin="round"/>
</svg>
