<svg width="20" height="20" viewBox="0 0 20 20" fill="none" xmlns="http://www.w3.org/2000/svg">
<path d="M12.9167 10.8333C15.9082 10.8333 18.3333 10.0871 18.3333 9.16667C18.3333 8.24619 15.9082 7.5 12.9167 7.5C9.92512 7.5 7.5 8.24619 7.5 9.16667C7.5 10.0871 9.92512 10.8333 12.9167 10.8333Z" stroke="#99A1AF" stroke-width="1.25"/>
<path d="M18.3333 12.9141C18.3333 13.8346 15.9082 14.5807 12.9167 14.5807C9.92508 14.5807 7.5 13.8346 7.5 12.9141" stroke="#99A1AF" stroke-width="1.25"/>
<path d="M18.3333 9.16406V16.4974C18.3333 17.5099 15.9082 18.3307 12.9167 18.3307C9.92508 18.3307 7.5 17.5099 7.5 16.4974V9.16406" stroke="#99A1AF" stroke-width="1.25"/>
<path d="M7.08268 4.9974C10.0742 4.9974 12.4993 4.2512 12.4993 3.33073C12.4993 2.41025 10.0742 1.66406 7.08268 1.66406C4.09114 1.66406 1.66602 2.41025 1.66602 3.33073C1.66602 4.2512 4.09114 4.9974 7.08268 4.9974Z" stroke="#99A1AF" stroke-width="1.25"/>
<path d="M4.99935 9.16667C3.42284 8.97483 1.97427 8.47875 1.66602 7.5M4.99935 13.3333C3.42284 13.1415 1.97427 12.6454 1.66602 11.6667" stroke="#99A1AF" stroke-width="1.25" stroke-linecap="round"/>
<path d="M4.99935 17.5026C3.42284 17.3108 1.97427 16.8147 1.66602 15.8359V3.33594" stroke="#99A1AF" stroke-width="1.25" stroke-linecap="round"/>
<path d="M12.5 5.0026V3.33594" stroke="#99A1AF" stroke-width="1.25" stroke-linecap="round"/>
</svg>
