<svg width="32" height="32" viewBox="0 0 32 32" fill="none" xmlns="http://www.w3.org/2000/svg">
<path d="M16.8333 8.91406H17.6667C18.4417 8.91406 18.8292 8.91406 19.1471 8.99925C20.0097 9.23041 20.6837 9.90429 20.9148 10.767C21 11.0849 21 11.4724 21 12.2474H10.1667C9.24619 12.2474 8.5 11.5012 8.5 10.5807C8.5 9.66025 9.24619 8.91406 10.1667 8.91406H12.6667" stroke="#111111" stroke-width="1.25" stroke-linecap="round" stroke-linejoin="round"/>
<path d="M8.5 10.5859V18.9193C8.5 21.2763 8.5 22.4548 9.23223 23.187C9.96447 23.9193 11.143 23.9193 13.5 23.9193H18.5C20.857 23.9193 22.0355 23.9193 22.7677 23.187C23.5 22.4548 23.5 21.2763 23.5 18.9193V17.2526C23.5 14.8956 23.5 13.7171 22.7677 12.9848C22.0355 12.2526 20.857 12.2526 18.5 12.2526H11.8333" stroke="#111111" stroke-width="1.25" stroke-linecap="round" stroke-linejoin="round"/>
<path d="M23.4993 16.4141H21.8327C21.4452 16.4141 21.2514 16.4141 21.0925 16.4566C20.6611 16.5722 20.3242 16.9091 20.2086 17.3406C20.166 17.4995 20.166 17.6932 20.166 18.0807C20.166 18.4682 20.166 18.662 20.2086 18.8209C20.3242 19.2523 20.6611 19.5892 21.0925 19.7048C21.2514 19.7474 21.4452 19.7474 21.8327 19.7474H23.4993" stroke="#111111" stroke-width="1.25" stroke-linecap="round" stroke-linejoin="round"/>
<path d="M14.7507 8.08594C16.3615 8.08594 17.6673 9.39177 17.6673 11.0026C17.6673 11.4499 17.5667 11.8737 17.3867 12.2526H12.1147C11.9347 11.8737 11.834 11.4499 11.834 11.0026C11.834 9.39177 13.1398 8.08594 14.7507 8.08594Z" stroke="#111111" stroke-width="1.25" stroke-linecap="round" stroke-linejoin="round"/>
</svg>
