<svg width="32" height="32" viewBox="0 0 32 32" fill="none" xmlns="http://www.w3.org/2000/svg">
<path d="M23.9527 15.2016C24.206 15.5568 24.3327 15.7345 24.3327 15.9974C24.3327 16.2603 24.206 16.438 23.9527 16.7932C22.8143 18.3896 19.907 21.8307 15.9993 21.8307C12.0917 21.8307 9.18443 18.3896 8.04605 16.7932C7.79269 16.438 7.66602 16.2603 7.66602 15.9974C7.66602 15.7345 7.79269 15.5568 8.04605 15.2016C9.18443 13.6053 12.0917 10.1641 15.9993 10.1641C19.907 10.1641 22.8143 13.6053 23.9527 15.2016Z" stroke="#111111" stroke-width="1.25"/>
<path d="M18.5 16C18.5 14.6192 17.3807 13.5 16 13.5C14.6192 13.5 13.5 14.6192 13.5 16C13.5 17.3807 14.6192 18.5 16 18.5C17.3807 18.5 18.5 17.3807 18.5 16Z" stroke="#111111" stroke-width="1.25"/>
</svg>
