<svg width="20" height="20" viewBox="0 0 20 20" fill="none" xmlns="http://www.w3.org/2000/svg">
<g clip-path="url(#clip0_4658_7950)">
<path d="M18.3327 9.9974H16.266C15.9018 9.99662 15.5474 10.1152 15.2569 10.3349C14.9665 10.5546 14.756 10.8634 14.6577 11.2141L12.6993 18.1807C12.6867 18.224 12.6604 18.262 12.6243 18.2891C12.5883 18.3161 12.5444 18.3307 12.4993 18.3307C12.4543 18.3307 12.4104 18.3161 12.3743 18.2891C12.3383 18.262 12.312 18.224 12.2993 18.1807L7.69935 1.81406C7.68673 1.77079 7.66041 1.73278 7.62435 1.70573C7.58829 1.67868 7.54443 1.66406 7.49935 1.66406C7.45427 1.66406 7.41041 1.67868 7.37435 1.70573C7.33829 1.73278 7.31197 1.77079 7.29935 1.81406L5.34102 8.78073C5.24307 9.13002 5.03383 9.43783 4.74507 9.65741C4.4563 9.87699 4.10378 9.99636 3.74102 9.9974H1.66602" stroke="#99A1AF" stroke-width="1.66667" stroke-linecap="round" stroke-linejoin="round"/>
</g>
<defs>
<clipPath id="clip0_4658_7950">
<rect width="20" height="20" fill="white"/>
</clipPath>
</defs>
</svg>
