<svg width="22" height="22" viewBox="0 0 22 22" fill="none" xmlns="http://www.w3.org/2000/svg">
<path d="M14.2077 10.0833C14.2077 8.31142 12.7713 6.875 10.9993 6.875C9.22743 6.875 7.79102 8.31142 7.79102 10.0833C7.79102 11.8552 9.22743 13.2917 10.9993 13.2917C12.7713 13.2917 14.2077 11.8552 14.2077 10.0833Z" stroke="#2E2E2E" stroke-width="1.375" stroke-linecap="round" stroke-linejoin="round"/>
<path d="M14.1935 10.4041C14.4887 10.4935 14.8018 10.5417 15.1261 10.5417C16.898 10.5417 18.3344 9.10525 18.3344 7.33333C18.3344 5.56142 16.898 4.125 15.1261 4.125C13.4624 4.125 12.0945 5.39128 11.9336 7.01262" stroke="#2E2E2E" stroke-width="1.375" stroke-linecap="round" stroke-linejoin="round"/>
<path d="M10.0668 7.01262C9.90595 5.39128 8.53803 4.125 6.87435 4.125C5.10243 4.125 3.66602 5.56142 3.66602 7.33333C3.66602 9.10525 5.10243 10.5417 6.87435 10.5417C7.19867 10.5417 7.51175 10.4935 7.80685 10.4041" stroke="#2E2E2E" stroke-width="1.375" stroke-linecap="round" stroke-linejoin="round"/>
<path d="M20.1667 15.1224C20.1667 12.5911 17.9095 10.5391 15.125 10.5391" stroke="#2E2E2E" stroke-width="1.375" stroke-linecap="round" stroke-linejoin="round"/>
<path d="M16.0423 17.8724C16.0423 15.3411 13.7851 13.2891 11.0007 13.2891C8.21621 13.2891 5.95898 15.3411 5.95898 17.8724" stroke="#2E2E2E" stroke-width="1.375" stroke-linecap="round" stroke-linejoin="round"/>
<path d="M6.87565 10.5391C4.09121 10.5391 1.83398 12.5911 1.83398 15.1224" stroke="#2E2E2E" stroke-width="1.375" stroke-linecap="round" stroke-linejoin="round"/>
</svg>
